<svg width="32" height="32" viewBox="0 0 32 32" fill="none" xmlns="http://www.w3.org/2000/svg">
<path d="M22.6667 24C23.374 24 24.0522 24.2809 24.5523 24.781C25.0524 25.2811 25.3334 25.9594 25.3334 26.6667C25.3334 27.3739 25.0524 28.0522 24.5523 28.5523C24.0522 29.0524 23.374 29.3333 22.6667 29.3333C21.9595 29.3333 21.2812 29.0524 20.7811 28.5523C20.281 28.0522 20 27.3739 20 26.6667C20 25.1867 21.1867 24 22.6667 24ZM1.33337 2.66666H5.69337L6.94671 5.33333H26.6667C27.0203 5.33333 27.3595 5.47381 27.6095 5.72386C27.8596 5.9739 28 6.31304 28 6.66666C28 6.89333 27.9334 7.12 27.84 7.33333L23.0667 15.96C22.6134 16.7733 21.7334 17.3333 20.7334 17.3333H10.8L9.60004 19.5067L9.56004 19.6667C9.56004 19.7551 9.59516 19.8399 9.65767 19.9024C9.72018 19.9649 9.80497 20 9.89337 20H25.3334V22.6667H9.33337C8.62613 22.6667 7.94785 22.3857 7.44776 21.8856C6.94766 21.3855 6.66671 20.7072 6.66671 20C6.66671 19.5333 6.78671 19.0933 6.98671 18.72L8.80004 15.4533L4.00004 5.33333H1.33337V2.66666ZM9.33337 24C10.0406 24 10.7189 24.2809 11.219 24.781C11.7191 25.2811 12 25.9594 12 26.6667C12 27.3739 11.7191 28.0522 11.219 28.5523C10.7189 29.0524 10.0406 29.3333 9.33337 29.3333C8.62613 29.3333 7.94785 29.0524 7.44776 28.5523C6.94766 28.0522 6.66671 27.3739 6.66671 26.6667C6.66671 25.1867 7.85337 24 9.33337 24ZM21.3334 14.6667L25.04 8H8.18671L11.3334 14.6667H21.3334Z" fill="#366901"/>
</svg>
