<svg width="93" height="43" viewBox="0 0 93 43" fill="none" xmlns="http://www.w3.org/2000/svg">
<path d="M20.3822 25.5862C22.1169 9.10696 7.66141 2.31288 0 0C0.722775 5.63764 1.56119 16.4793 4.33665 21.6832C7.1121 26.8872 13.1545 34.8377 15.1783 36.4278C16.9129 32.5249 15.1783 22.5506 13.0099 18.2139C16.9129 19.9486 18.2139 31.2239 18.2139 31.2239C18.2139 31.2239 20.154 27.7545 20.3822 25.5862Z" fill="#00397C"/>
<path d="M92.0865 10.794C51.322 -8.72088 25.3021 22.7921 19.2308 38.9822C35.71 22.503 49.1536 20.3346 51.322 20.093C38.7457 26.406 32.6744 32.9109 25.7357 42.2099C71.8777 37.6998 90.6409 19.6119 92.0865 10.794Z" fill="#5FB901"/>
</svg>
