<svg width="25" height="24" viewBox="0 0 25 24" fill="none" xmlns="http://www.w3.org/2000/svg">
<path d="M12.4833 6.5C13.1464 6.5 13.7823 6.76339 14.2511 7.23223C14.7199 7.70107 14.9833 8.33696 14.9833 9C14.9833 9.3283 14.9187 9.65339 14.793 9.95671C14.6674 10.26 14.4833 10.5356 14.2511 10.7678C14.019 10.9999 13.7434 11.1841 13.44 11.3097C13.1367 11.4353 12.8116 11.5 12.4833 11.5C11.8203 11.5 11.1844 11.2366 10.7156 10.7678C10.2467 10.2989 9.98334 9.66304 9.98334 9C9.98334 8.33696 10.2467 7.70107 10.7156 7.23223C11.1844 6.76339 11.8203 6.5 12.4833 6.5ZM12.4833 2C14.3399 2 16.1203 2.7375 17.4331 4.05025C18.7458 5.36301 19.4833 7.14348 19.4833 9C19.4833 14.25 12.4833 22 12.4833 22C12.4833 22 5.48334 14.25 5.48334 9C5.48334 7.14348 6.22084 5.36301 7.53359 4.05025C8.84634 2.7375 10.6268 2 12.4833 2ZM12.4833 4C11.1573 4 9.88549 4.52678 8.9478 5.46447C8.01012 6.40215 7.48334 7.67392 7.48334 9C7.48334 10 7.48334 12 12.4833 18.71C17.4833 12 17.4833 10 17.4833 9C17.4833 7.67392 16.9566 6.40215 16.0189 5.46447C15.0812 4.52678 13.8094 4 12.4833 4Z" fill="#5FB901"/>
</svg>
