<svg width="136" height="120" viewBox="0 0 136 120" fill="none" xmlns="http://www.w3.org/2000/svg">
<path d="M20.3822 37.1247C22.1169 20.6454 7.66141 13.8513 0 11.5385C0.722775 17.1761 1.56119 28.0177 4.33665 33.2217C7.1121 38.4257 13.1545 46.3762 15.1783 47.9663C16.9129 44.0633 15.1783 34.089 13.0099 29.7524C16.9129 31.487 18.2139 42.7623 18.2139 42.7623C18.2139 42.7623 20.154 39.293 20.3822 37.1247Z" fill="#00397C"/>
<path d="M92.0865 22.3325C51.322 2.81756 25.3021 34.3305 19.2308 50.5207C35.71 34.0414 49.1536 31.8731 51.322 31.6314C38.7457 37.9444 32.6744 44.4494 25.7357 53.7484C71.8777 49.2382 90.6409 31.1503 92.0865 22.3325Z" fill="#5FB901"/>
<path fill-rule="evenodd" clip-rule="evenodd" d="M76.9231 2.30769C59.2308 2.30769 46.1538 9.61539 46.1538 9.61539L45.5495 8.84615C45.5495 8.84615 60.7692 0 76.9231 0C105.295 0 129.067 19.692 135.318 46.1538H127.379C121.309 23.9845 101.019 2.30769 76.9231 2.30769ZM118.657 91.5385C109.107 104.156 93.9671 112.308 76.9231 112.308C48.0343 112.308 18.8461 88.8887 18.8461 60H16.9231C16.9231 93.1371 43.786 120 76.9231 120C98.4904 120 117.4 108.621 127.975 91.5385H118.657Z" fill="#5FB901"/>
<path d="M78.4331 55.3846H77.6202C77.6114 55.0787 77.5503 54.796 77.4366 54.5367C77.323 54.2745 77.1642 54.0457 76.9602 53.8505C76.7563 53.6553 76.513 53.5038 76.2303 53.396C75.9506 53.2882 75.6374 53.2343 75.2906 53.2343C74.7195 53.2343 74.1732 53.3843 73.6516 53.6844C73.1301 53.9816 72.6814 54.4187 72.3055 54.9956C71.9296 55.5725 71.6732 56.2777 71.5363 57.111C71.3993 57.9327 71.4212 58.6247 71.6018 59.1871C71.7825 59.7465 72.0782 60.1704 72.4891 60.4589C72.9028 60.7474 73.388 60.8916 73.9445 60.8916C74.3 60.8916 74.6409 60.8377 74.9672 60.7299C75.2935 60.6221 75.5937 60.472 75.8676 60.2797C76.1415 60.0845 76.3818 59.8558 76.5887 59.5935C76.7956 59.3313 76.9558 59.0472 77.0695 58.7413H77.8912C77.7484 59.1521 77.5488 59.5352 77.2924 59.8907C77.036 60.2433 76.7329 60.5521 76.3833 60.8173C76.0366 61.0825 75.6534 61.2893 75.2338 61.4379C74.8172 61.5865 74.3743 61.6608 73.9051 61.6608C73.1417 61.6608 72.4963 61.47 71.969 61.0883C71.4445 60.7066 71.0715 60.169 70.8501 59.4755C70.6315 58.7791 70.6009 57.9589 70.7583 57.0149C70.9127 56.0883 71.2085 55.2841 71.6455 54.6023C72.0855 53.9204 72.6246 53.3945 73.2627 53.0245C73.9008 52.6515 74.5942 52.465 75.3431 52.465C75.8209 52.465 76.2493 52.5393 76.628 52.6879C77.0068 52.8336 77.3288 53.0405 77.594 53.3086C77.862 53.5737 78.0674 53.8826 78.2102 54.2351C78.353 54.5877 78.4273 54.9709 78.4331 55.3846Z" fill="#5FB901"/>
<path d="M87.4159 57.111C87.2614 58.0347 86.9642 58.8374 86.5242 59.5192C86.0843 60.201 85.5467 60.7284 84.9115 61.1014C84.2763 61.4744 83.5857 61.6608 82.8398 61.6608C82.0735 61.6608 81.4266 61.47 80.8992 61.0883C80.3748 60.7037 80.0033 60.1646 79.7847 59.4711C79.5662 58.7748 79.5342 57.956 79.6886 57.0149C79.843 56.0912 80.1402 55.2885 80.5802 54.6066C81.0202 53.9248 81.5592 53.3974 82.1973 53.0245C82.8354 52.6515 83.5289 52.465 84.2777 52.465C85.0353 52.465 85.6763 52.6559 86.2008 53.0376C86.7253 53.4193 87.0983 53.9583 87.3197 54.6547C87.5411 55.3482 87.5732 56.167 87.4159 57.111ZM86.6335 57.0149C86.7675 56.2165 86.7501 55.5361 86.5811 54.9738C86.415 54.4114 86.1294 53.9816 85.7244 53.6844C85.3194 53.3843 84.8284 53.2343 84.2515 53.2343C83.6542 53.2343 83.0933 53.3887 82.5688 53.6975C82.0444 54.0035 81.5971 54.4464 81.227 55.0262C80.857 55.6031 80.6035 56.2981 80.4666 57.111C80.3354 57.9065 80.3529 58.5868 80.519 59.1521C80.6851 59.7144 80.9706 60.1457 81.3756 60.4458C81.7836 60.743 82.2775 60.8916 82.8573 60.8916C83.4575 60.8916 84.0199 60.7372 84.5444 60.4283C85.0688 60.1195 85.5146 59.6766 85.8818 59.0996C86.2518 58.5198 86.5024 57.8249 86.6335 57.0149Z" fill="#5FB901"/>
<path d="M90.1442 52.5874H91.0883L93.0463 60.3846H93.1294L97.6617 52.5874H98.6058L97.1197 61.5385H96.3505L97.5568 54.3138H97.4869L93.2605 61.5385H92.5175L90.7037 54.3138H90.6337L89.4274 61.5385H88.6582L90.1442 52.5874Z" fill="#5FB901"/>
<path d="M99.4995 61.5385L100.986 52.5874H106.178L106.055 53.3217H101.68L101.121 56.6914H105.221L105.098 57.4257H100.999L100.439 60.8042H104.902L104.779 61.5385H99.4995ZM103.368 51.6565L104.814 49.6722H105.741L104.076 51.6565H103.368Z" fill="#5FB901"/>
<path d="M106.807 61.5385L108.293 52.5874H111.182C111.817 52.5874 112.329 52.701 112.716 52.9283C113.107 53.1556 113.376 53.4717 113.525 53.8767C113.676 54.2788 113.71 54.7421 113.625 55.2666C113.538 55.7852 113.352 56.2442 113.066 56.6433C112.783 57.0425 112.41 57.3558 111.947 57.583C111.484 57.8074 110.937 57.9196 110.308 57.9196H107.852L107.979 57.1722H110.413C110.882 57.1722 111.284 57.095 111.619 56.9406C111.954 56.7861 112.222 56.5661 112.424 56.2806C112.625 55.995 112.757 55.657 112.821 55.2666C112.885 54.8732 112.863 54.5309 112.756 54.2395C112.651 53.9481 112.456 53.7223 112.17 53.5621C111.887 53.4018 111.51 53.3217 111.038 53.3217H108.988L107.625 61.5385H106.807ZM111.423 57.5L112.957 61.5385H112.017L110.509 57.5H111.423Z" fill="#5FB901"/>
<path d="M122.592 55.3846H121.779C121.77 55.0787 121.709 54.796 121.595 54.5367C121.482 54.2745 121.323 54.0457 121.119 53.8505C120.915 53.6553 120.672 53.5038 120.389 53.396C120.109 53.2882 119.796 53.2343 119.449 53.2343C118.878 53.2343 118.332 53.3843 117.81 53.6844C117.289 53.9816 116.84 54.4187 116.464 54.9956C116.088 55.5725 115.832 56.2777 115.695 57.111C115.558 57.9327 115.58 58.6247 115.76 59.1871C115.941 59.7465 116.237 60.1704 116.648 60.4589C117.061 60.7474 117.547 60.8916 118.103 60.8916C118.459 60.8916 118.8 60.8377 119.126 60.7299C119.452 60.6221 119.752 60.472 120.026 60.2797C120.3 60.0845 120.54 59.8558 120.747 59.5935C120.954 59.3313 121.115 59.0472 121.228 58.7413H122.05C121.907 59.1521 121.707 59.5352 121.451 59.8907C121.195 60.2433 120.892 60.5521 120.542 60.8173C120.195 61.0825 119.812 61.2893 119.392 61.4379C118.976 61.5865 118.533 61.6608 118.064 61.6608C117.3 61.6608 116.655 61.47 116.128 61.0883C115.603 60.7066 115.23 60.169 115.009 59.4755C114.79 58.7791 114.76 57.9589 114.917 57.0149C115.071 56.0883 115.367 55.2841 115.804 54.6023C116.244 53.9204 116.783 53.3945 117.421 53.0245C118.059 52.6515 118.753 52.465 119.502 52.465C119.98 52.465 120.408 52.5393 120.787 52.6879C121.165 52.8336 121.487 53.0405 121.753 53.3086C122.021 53.5737 122.226 53.8826 122.369 54.2351C122.512 54.5877 122.586 54.9709 122.592 55.3846Z" fill="#5FB901"/>
<path d="M125.805 52.5874L124.319 61.5385H123.502L124.988 52.5874H125.805Z" fill="#5FB901"/>
<path d="M134.772 57.111C134.617 58.0347 134.32 58.8374 133.88 59.5192C133.44 60.201 132.902 60.7284 132.267 61.1014C131.632 61.4744 130.942 61.6608 130.196 61.6608C129.429 61.6608 128.782 61.47 128.255 61.0883C127.731 60.7037 127.359 60.1646 127.141 59.4711C126.922 58.7748 126.89 57.956 127.044 57.0149C127.199 56.0912 127.496 55.2885 127.936 54.6066C128.376 53.9248 128.915 53.3974 129.553 53.0245C130.191 52.6515 130.885 52.465 131.634 52.465C132.391 52.465 133.032 52.6559 133.557 53.0376C134.081 53.4193 134.454 53.9583 134.675 54.6547C134.897 55.3482 134.929 56.167 134.772 57.111ZM133.989 57.0149C134.123 56.2165 134.106 55.5361 133.937 54.9738C133.771 54.4114 133.485 53.9816 133.08 53.6844C132.675 53.3843 132.184 53.2343 131.607 53.2343C131.01 53.2343 130.449 53.3887 129.925 53.6975C129.4 54.0035 128.953 54.4464 128.583 55.0262C128.213 55.6031 127.959 56.2981 127.822 57.111C127.691 57.9065 127.709 58.5868 127.875 59.1521C128.041 59.7144 128.326 60.1457 128.731 60.4458C129.139 60.743 129.633 60.8916 130.213 60.8916C130.813 60.8916 131.376 60.7372 131.9 60.4283C132.425 60.1195 132.87 59.6766 133.238 59.0996C133.608 58.5198 133.858 57.8249 133.989 57.0149Z" fill="#5FB901"/>
<path d="M36.3636 65.944L37.9371 78.5664H38.0769L43.8461 65.944H49.3357L40.4545 83.8461H33.8112L30.8741 65.944H36.3636Z" fill="#00397C"/>
<path d="M55.92 65.944L52.948 83.8461H48.0878L51.0599 65.944H55.92Z" fill="#00397C"/>
<path d="M55.3212 83.8461L55.7758 81.1538L66.1254 69.8601H57.6639L58.3282 65.944H72.9436L72.4891 68.6364L62.1394 79.9301H70.601L69.9366 83.8461H55.3212Z" fill="#00397C"/>
<path d="M80.1748 65.944L77.2028 83.8461H72.3426L75.3147 65.944H80.1748Z" fill="#00397C"/>
<path d="M97.9677 65.944L94.9956 83.8461H90.9397L86.0446 74.4406H85.9397L84.3662 83.8461H79.5061L82.4781 65.944H86.604L91.4292 75.3147H91.569L93.1075 65.944H97.9677Z" fill="#00397C"/>
<path d="M97.2946 83.8461L100.267 65.944H105.127L103.973 72.9371H110.406L111.56 65.944H116.42L113.448 83.8461H108.588L109.742 76.8531H103.309L102.155 83.8461H97.2946Z" fill="#00397C"/>
<path d="M134.532 75.2098C134.206 77.1562 133.559 78.7879 132.592 80.1049C131.624 81.4219 130.45 82.4155 129.069 83.0857C127.688 83.7558 126.211 84.0909 124.637 84.0909C122.959 84.0909 121.502 83.7267 120.267 82.9982C119.031 82.2698 118.131 81.2034 117.566 79.7989C117 78.3945 116.887 76.6783 117.225 74.6503C117.539 72.704 118.18 71.0664 119.148 69.7378C120.115 68.4091 121.295 67.4038 122.688 66.722C124.081 66.0402 125.57 65.6993 127.155 65.6993C128.821 65.6993 130.27 66.0664 131.499 66.8007C132.735 67.535 133.632 68.6101 134.191 70.0262C134.757 71.4423 134.87 73.1702 134.532 75.2098ZM129.637 74.6503C129.8 73.6247 129.812 72.7622 129.672 72.0629C129.532 71.3578 129.238 70.8275 128.789 70.472C128.341 70.1107 127.737 69.9301 126.98 69.9301C126.117 69.9301 125.354 70.1399 124.69 70.5594C124.025 70.979 123.475 71.5822 123.038 72.3689C122.601 73.1556 122.295 74.1026 122.12 75.2098C121.933 76.2471 121.916 77.1096 122.067 77.7972C122.225 78.4848 122.534 79.0006 122.994 79.3444C123.46 79.6882 124.066 79.8601 124.812 79.8601C125.663 79.8601 126.415 79.6562 127.067 79.2482C127.726 78.8403 128.271 78.2488 128.702 77.4738C129.139 76.6987 129.451 75.7576 129.637 74.6503Z" fill="#00397C"/>
</svg>
