<svg width="299" height="265" viewBox="0 0 299 265" fill="none" xmlns="http://www.w3.org/2000/svg">
<path d="M45.2944 82.1768C49.1104 45.9241 17.3098 30.9778 0.455444 25.8896C2.04548 38.2919 3.88991 62.1424 9.99564 73.5906C16.1014 85.0389 29.394 102.529 33.8461 106.027C37.6622 97.4411 33.8461 75.4987 29.076 65.9585C37.6622 69.7745 40.5243 94.5791 40.5243 94.5791C40.5243 94.5791 44.7922 86.9469 45.2944 82.1768Z" fill="white"/>
<path d="M203.036 49.6356C113.359 6.70475 56.1175 76.0301 42.7612 111.647C79.0139 75.3941 108.589 70.624 113.359 70.0924C85.6921 83.9803 72.3358 98.2906 57.0715 118.747C158.579 108.826 199.856 69.034 203.036 49.6356Z" fill="white"/>
<path fill-rule="evenodd" clip-rule="evenodd" d="M169.679 5.58255C130.757 5.58255 101.989 21.6588 101.989 21.6588L100.66 19.9665C100.66 19.9665 134.142 0.505859 169.679 0.505859C232.093 0.505859 284.39 43.8263 298.141 102.04H280.676C267.323 53.2694 222.686 5.58255 169.679 5.58255ZM261.489 201.881C240.48 229.639 207.174 247.572 169.679 247.572C106.126 247.572 41.9152 196.052 41.9152 132.5H37.6846C37.6846 205.398 96.7803 264.494 169.679 264.494C217.125 264.494 258.724 239.461 281.988 201.881H261.489Z" fill="white"/>
<path d="M173.001 122.347H171.212C171.193 121.673 171.058 121.052 170.808 120.481C170.558 119.904 170.209 119.401 169.76 118.972C169.312 118.542 168.776 118.209 168.155 117.972C167.539 117.735 166.85 117.616 166.087 117.616C164.831 117.616 163.629 117.946 162.482 118.606C161.334 119.26 160.347 120.222 159.52 121.491C158.694 122.76 158.129 124.311 157.828 126.144C157.527 127.952 157.575 129.474 157.972 130.712C158.37 131.942 159.02 132.875 159.924 133.509C160.834 134.144 161.902 134.461 163.126 134.461C163.908 134.461 164.658 134.343 165.376 134.106C166.094 133.868 166.754 133.538 167.357 133.115C167.959 132.686 168.488 132.183 168.943 131.606C169.398 131.029 169.751 130.404 170.001 129.731H171.808C171.494 130.635 171.055 131.478 170.491 132.26C169.927 133.035 169.26 133.715 168.491 134.298C167.728 134.881 166.885 135.336 165.962 135.663C165.046 135.99 164.071 136.154 163.039 136.154C161.36 136.154 159.94 135.734 158.78 134.894C157.626 134.054 156.806 132.872 156.319 131.346C155.838 129.814 155.771 128.01 156.117 125.933C156.456 123.895 157.107 122.125 158.069 120.625C159.036 119.126 160.222 117.969 161.626 117.154C163.03 116.334 164.555 115.924 166.203 115.924C167.254 115.924 168.196 116.087 169.03 116.414C169.863 116.735 170.571 117.19 171.154 117.779C171.744 118.363 172.196 119.042 172.51 119.818C172.824 120.593 172.988 121.436 173.001 122.347Z" fill="white"/>
<path d="M192.762 126.144C192.422 128.176 191.768 129.942 190.8 131.442C189.832 132.942 188.65 134.102 187.252 134.923C185.855 135.743 184.336 136.154 182.695 136.154C181.009 136.154 179.586 135.734 178.426 134.894C177.272 134.048 176.455 132.862 175.974 131.337C175.493 129.805 175.423 128.003 175.762 125.933C176.102 123.901 176.756 122.135 177.724 120.635C178.692 119.135 179.878 117.975 181.281 117.154C182.685 116.334 184.211 115.924 185.858 115.924C187.525 115.924 188.935 116.344 190.089 117.183C191.243 118.023 192.063 119.209 192.55 120.741C193.037 122.266 193.108 124.068 192.762 126.144ZM191.041 125.933C191.335 124.177 191.297 122.68 190.925 121.443C190.56 120.206 189.932 119.26 189.041 118.606C188.15 117.946 187.07 117.616 185.8 117.616C184.486 117.616 183.253 117.956 182.099 118.635C180.945 119.308 179.961 120.283 179.147 121.558C178.333 122.827 177.775 124.356 177.474 126.144C177.185 127.894 177.224 129.391 177.589 130.635C177.955 131.872 178.583 132.82 179.474 133.481C180.371 134.134 181.458 134.461 182.733 134.461C184.054 134.461 185.291 134.122 186.445 133.442C187.598 132.763 188.579 131.788 189.387 130.519C190.201 129.244 190.752 127.715 191.041 125.933Z" fill="white"/>
<path d="M198.764 116.193H200.841L205.148 133.346H205.331L215.302 116.193H217.378L214.109 135.884H212.417L215.071 119.991H214.917L205.619 135.884H203.985L199.995 119.991H199.841L197.187 135.884H195.495L198.764 116.193Z" fill="white"/>
<path d="M219.345 135.884L222.614 116.193H234.036L233.767 117.808H224.142L222.912 125.221H231.931L231.661 126.837H222.643L221.412 134.269H231.229L230.959 135.884H219.345ZM227.854 114.145L231.036 109.78H233.075L229.411 114.145H227.854Z" fill="white"/>
<path d="M235.421 135.884L238.69 116.193H245.045C246.443 116.193 247.568 116.443 248.42 116.943C249.279 117.443 249.872 118.138 250.199 119.029C250.532 119.914 250.606 120.933 250.42 122.087C250.228 123.228 249.818 124.237 249.189 125.116C248.568 125.994 247.747 126.683 246.728 127.183C245.709 127.676 244.507 127.923 243.122 127.923H237.719L237.998 126.279H243.353C244.385 126.279 245.27 126.109 246.007 125.769C246.744 125.43 247.334 124.946 247.776 124.318C248.218 123.689 248.51 122.946 248.651 122.087C248.792 121.222 248.744 120.468 248.507 119.827C248.276 119.186 247.847 118.69 247.218 118.337C246.597 117.985 245.767 117.808 244.728 117.808H240.219L237.219 135.884H235.421ZM245.574 127L248.949 135.884H246.882L243.565 127H245.574Z" fill="white"/>
<path d="M270.145 122.347H268.357C268.338 121.673 268.203 121.052 267.953 120.481C267.703 119.904 267.354 119.401 266.905 118.972C266.456 118.542 265.921 118.209 265.299 117.972C264.684 117.735 263.995 117.616 263.232 117.616C261.976 117.616 260.774 117.946 259.626 118.606C258.479 119.26 257.492 120.222 256.665 121.491C255.838 122.76 255.274 124.311 254.973 126.144C254.672 127.952 254.72 129.474 255.117 130.712C255.514 131.942 256.165 132.875 257.069 133.509C257.979 134.144 259.046 134.461 260.271 134.461C261.053 134.461 261.803 134.343 262.521 134.106C263.238 133.868 263.899 133.538 264.501 133.115C265.104 132.686 265.633 132.183 266.088 131.606C266.543 131.029 266.895 130.404 267.145 129.731H268.953C268.639 130.635 268.2 131.478 267.636 132.26C267.072 133.035 266.405 133.715 265.636 134.298C264.873 134.881 264.03 135.336 263.107 135.663C262.19 135.99 261.216 136.154 260.184 136.154C258.505 136.154 257.085 135.734 255.925 134.894C254.771 134.054 253.95 132.872 253.463 131.346C252.983 129.814 252.915 128.01 253.261 125.933C253.601 123.895 254.252 122.125 255.213 120.625C256.181 119.126 257.367 117.969 258.771 117.154C260.174 116.334 261.7 115.924 263.347 115.924C264.399 115.924 265.341 116.087 266.174 116.414C267.008 116.735 267.716 117.19 268.299 117.779C268.889 118.363 269.341 119.042 269.655 119.818C269.969 120.593 270.132 121.436 270.145 122.347Z" fill="white"/>
<path d="M277.215 116.193L273.946 135.884H272.148L275.417 116.193H277.215Z" fill="white"/>
<path d="M296.94 126.144C296.6 128.176 295.946 129.942 294.978 131.442C294.01 132.942 292.828 134.102 291.43 134.923C290.033 135.743 288.514 136.154 286.873 136.154C285.187 136.154 283.764 135.734 282.604 134.894C281.45 134.048 280.633 132.862 280.152 131.337C279.671 129.805 279.601 128.003 279.94 125.933C280.28 123.901 280.934 122.135 281.902 120.635C282.87 119.135 284.056 117.975 285.459 117.154C286.863 116.334 288.389 115.924 290.036 115.924C291.703 115.924 293.113 116.344 294.267 117.183C295.421 118.023 296.241 119.209 296.728 120.741C297.215 122.266 297.286 124.068 296.94 126.144ZM295.219 125.933C295.513 124.177 295.475 122.68 295.103 121.443C294.738 120.206 294.11 119.26 293.219 118.606C292.328 117.946 291.248 117.616 289.978 117.616C288.664 117.616 287.43 117.956 286.277 118.635C285.123 119.308 284.139 120.283 283.325 121.558C282.511 122.827 281.953 124.356 281.652 126.144C281.363 127.894 281.402 129.391 281.767 130.635C282.133 131.872 282.761 132.82 283.652 133.481C284.549 134.134 285.636 134.461 286.911 134.461C288.232 134.461 289.469 134.122 290.623 133.442C291.776 132.763 292.757 131.788 293.565 130.519C294.379 129.244 294.93 127.715 295.219 125.933Z" fill="white"/>
<path d="M80.4519 145.576L83.9132 173.344H84.2209L96.9127 145.576H108.989L89.4515 184.959H74.8367L68.3755 145.576H80.4519Z" fill="white"/>
<path d="M123.474 145.576L116.936 184.959H106.244L112.782 145.576H123.474Z" fill="white"/>
<path d="M122.157 184.959L123.157 179.036L145.925 154.191H127.31L128.772 145.576H160.924L159.924 151.499L137.156 176.344H155.771L154.309 184.959H122.157Z" fill="white"/>
<path d="M176.832 145.576L170.294 184.959H159.602L166.14 145.576H176.832Z" fill="white"/>
<path d="M215.975 145.576L209.436 184.959H200.514L189.745 164.268H189.514L186.053 184.959H175.361L181.899 145.576H190.976L201.591 166.191H201.898L205.283 145.576H215.975Z" fill="white"/>
<path d="M214.494 184.959L221.032 145.576H231.724L229.186 160.96H243.339L245.877 145.576H256.569L250.031 184.959H239.339L241.877 169.575H227.724L225.186 184.959H214.494Z" fill="white"/>
<path d="M296.413 165.96C295.695 170.242 294.272 173.831 292.144 176.729C290.016 179.626 287.433 181.812 284.395 183.286C281.356 184.76 278.106 185.498 274.645 185.498C270.953 185.498 267.748 184.696 265.03 183.094C262.312 181.491 260.332 179.145 259.088 176.056C257.844 172.966 257.594 169.191 258.338 164.729C259.03 160.447 260.441 156.845 262.569 153.922C264.697 150.999 267.293 148.788 270.357 147.288C273.421 145.788 276.696 145.038 280.183 145.038C283.85 145.038 287.035 145.845 289.74 147.461C292.458 149.076 294.433 151.441 295.663 154.557C296.907 157.672 297.157 161.473 296.413 165.96ZM285.645 164.729C286.003 162.473 286.029 160.576 285.721 159.037C285.414 157.486 284.766 156.319 283.779 155.537C282.792 154.743 281.465 154.345 279.799 154.345C277.901 154.345 276.222 154.807 274.76 155.73C273.299 156.653 272.087 157.98 271.126 159.71C270.164 161.441 269.491 163.524 269.107 165.96C268.697 168.242 268.658 170.139 268.991 171.652C269.338 173.165 270.017 174.299 271.03 175.056C272.055 175.812 273.389 176.19 275.03 176.19C276.901 176.19 278.555 175.742 279.991 174.844C281.44 173.947 282.638 172.646 283.587 170.94C284.548 169.235 285.234 167.165 285.645 164.729Z" fill="white"/>
</svg>
