<svg width="25" height="24" viewBox="0 0 25 24" fill="none" xmlns="http://www.w3.org/2000/svg">
<path d="M7.10334 10.79C8.54334 13.62 10.8633 15.94 13.6933 17.38L15.8933 15.18C16.1733 14.9 16.5633 14.82 16.9133 14.93C18.0333 15.3 19.2333 15.5 20.4833 15.5C20.7486 15.5 21.0029 15.6054 21.1904 15.7929C21.378 15.9804 21.4833 16.2348 21.4833 16.5V20C21.4833 20.2652 21.378 20.5196 21.1904 20.7071C21.0029 20.8946 20.7486 21 20.4833 21C15.9747 21 11.6506 19.2089 8.46252 16.0208C5.2744 12.8327 3.48334 8.50868 3.48334 4C3.48334 3.73478 3.58869 3.48043 3.77623 3.29289C3.96377 3.10536 4.21812 3 4.48334 3H7.98334C8.24855 3 8.50291 3.10536 8.69044 3.29289C8.87798 3.48043 8.98334 3.73478 8.98334 4C8.98334 5.25 9.18334 6.45 9.55334 7.57C9.66334 7.92 9.58334 8.31 9.30334 8.59L7.10334 10.79Z" fill="#5FB901"/>
</svg>
